<svg width="122" height="98" viewBox="0 0 122 98" fill="none" xmlns="http://www.w3.org/2000/svg">
<path d="M61.6377 0.00996838C63.3903 0.589636 63.3903 0.589636 64.5836 2.57707C64.7738 3.83652 64.7738 3.83652 64.8306 5.23474C64.8537 5.73645 64.8768 6.23816 64.9006 6.75507C64.919 7.27557 64.9375 7.79607 64.9565 8.33234C64.9796 8.86052 65.0026 9.3887 65.0264 9.93289C65.0826 11.2347 65.132 12.5369 65.1802 13.8392C65.6125 13.3208 66.0447 12.8025 66.49 12.2684C67.0723 11.5908 67.6549 10.9137 68.238 10.237C68.521 9.89494 68.804 9.55292 69.0956 9.20054C71.0655 6.93937 72.4664 5.94728 75.323 5.88945C76.7772 6.96598 76.7772 6.96598 77.7095 8.53936C77.6071 10.7053 77.2797 11.6473 75.9592 13.2653C75.4662 13.7314 74.9732 14.1974 74.4653 14.6776C67.3823 21.0717 67.3823 21.0717 64.1291 30.0537C64.1391 32.207 64.2758 34.2354 64.5836 36.3634C65.306 35.6752 66.0266 34.9847 66.7464 34.2932C67.1832 33.8747 67.6201 33.4563 68.0702 33.0251C69.2085 31.8757 70.2048 30.6859 71.2211 29.4074C72.9364 27.7512 72.9364 27.7512 74.8382 27.7098C76.5373 28.4225 77.1949 28.8563 78.3061 30.4011C78.5641 31.7214 78.5641 31.7214 78.6114 33.2037C78.6326 33.7353 78.6537 34.2669 78.6755 34.8146C78.689 35.3667 78.7024 35.9188 78.7163 36.4876C78.7367 37.0474 78.7571 37.6072 78.7781 38.1839C78.8272 39.5642 78.866 40.9449 78.9027 42.3257C81.9153 39.7986 84.4968 37.4746 85.3789 33.2716C85.5029 30.5552 85.4925 27.899 85.3911 25.1841C85.3588 23.7908 85.3354 22.3985 85.3248 21.0048C85.3125 19.7512 85.2743 18.498 85.2347 17.245C85.4657 15.1641 85.4657 15.1641 86.5497 13.5516C87.8522 12.5142 87.8522 12.5142 89.754 12.597C90.5846 12.884 90.5846 12.884 91.432 13.1767C92.1481 14.767 92.097 15.7561 92.0869 17.5294C92.085 18.1229 92.083 18.7164 92.0811 19.3279C92.0761 19.9487 92.0711 20.5696 92.0659 21.2092C92.0632 21.8352 92.0605 22.4612 92.0578 23.1061C92.0507 24.6545 92.0409 26.2028 92.0286 27.7512C92.4224 27.7512 92.8162 27.7512 93.2219 27.7512C93.3734 27.3712 93.5249 26.9912 93.681 26.5996C95.4285 23.0331 97.9738 20.2215 101.463 19.0148C103.365 19.139 103.365 19.139 104.521 19.8843C105.408 21.624 105.44 22.4466 105.154 24.4388C104.111 26.0091 102.861 27.2971 101.575 28.6207C101.233 28.9849 100.892 29.3491 100.54 29.7244C99.6982 30.6201 98.8474 31.5054 97.9949 32.3885C98.7494 32.4133 99.5039 32.4381 100.281 32.4636C101.272 32.5071 102.262 32.5511 103.253 32.5956C103.75 32.6105 104.247 32.6254 104.759 32.6408C105.238 32.6643 105.717 32.6878 106.21 32.712C106.651 32.7294 107.091 32.7467 107.545 32.7646C109.052 33.1276 109.601 33.683 110.524 35.0384C110.711 37.0673 110.711 37.0673 110.524 39.0133C109.331 40.3383 109.331 40.3383 107.547 40.4338C106.419 40.3955 106.419 40.3955 105.269 40.3564C104.432 40.3472 103.596 40.3399 102.76 40.3344C101.447 40.321 100.137 40.2976 98.8253 40.2407C93.1339 39.9595 93.1339 39.9595 88.1572 42.6702C86.5011 44.4076 85.0646 46.2852 83.6758 48.288C84.0098 48.2976 84.3438 48.3073 84.688 48.3172C86.203 48.3666 87.7173 48.4306 89.2319 48.495C89.7576 48.5099 90.2833 48.5249 90.8249 48.5403C91.5834 48.5755 91.5834 48.5755 92.3572 48.6115C93.0555 48.6375 93.0555 48.6375 93.768 48.664C95.3186 49.0211 95.8575 49.5423 96.8017 50.9379C97.1451 53.1652 97.2969 54.7572 96.1235 56.6954C95.1997 57.8103 94.2372 58.8281 93.2219 59.8399C92.8804 60.1982 92.5389 60.5564 92.1871 60.9255C91.3479 61.8029 90.4962 62.6655 89.6421 63.5249C93.11 64.4788 96.3756 64.9592 99.7848 63.5249C102.909 60.9234 105.501 57.7602 108.058 54.5034C108.56 53.8725 109.063 53.2415 109.58 52.5915C110.022 52.0052 110.463 51.4189 110.918 50.8148C112.314 49.6129 112.314 49.6129 114.2 49.6338C115.894 50.2754 115.894 50.2754 117.087 52.2628C117.091 54.703 116.323 55.9339 114.866 57.6377C114.208 58.3511 113.543 59.0574 112.873 59.7571C112.535 60.1213 112.196 60.4855 111.847 60.8608C111.013 61.755 110.173 62.6408 109.331 63.5249C110.085 63.5497 110.84 63.5745 111.617 63.6C112.608 63.6435 113.598 63.6875 114.589 63.732C115.086 63.7469 115.583 63.7619 116.095 63.7773C116.814 63.8125 116.814 63.8125 117.546 63.8484C117.987 63.8658 118.427 63.8831 118.881 63.901C120.388 64.2641 120.937 64.8195 121.86 66.1749C122.047 68.2037 122.047 68.2037 121.86 70.1497C120.363 71.8118 119.456 71.6359 117.414 71.655C116.956 71.6525 116.499 71.65 116.028 71.6474C115.301 71.6512 115.301 71.6512 114.56 71.6551C112.927 71.6619 111.294 71.6592 109.661 71.6566C108.494 71.6595 107.327 71.6629 106.16 71.6669C102.983 71.6758 99.8066 71.6761 96.6299 71.6745C93.9817 71.6738 91.3335 71.677 88.6853 71.6802C82.4397 71.6875 76.1941 71.6878 69.9485 71.6838C63.497 71.6798 57.0456 71.688 50.5941 71.7021C45.0625 71.7137 39.531 71.7177 33.9994 71.7156C30.6924 71.7143 27.3854 71.7161 24.0784 71.7253C20.9692 71.7336 17.8601 71.7324 14.751 71.7237C13.6078 71.7221 12.4646 71.724 11.3214 71.7294C9.76481 71.7363 8.20861 71.731 6.65201 71.7226C6.19607 71.7275 5.74013 71.7324 5.27037 71.7374C2.23318 71.7026 2.23318 71.7026 0.761738 70.569C-0.125814 69.006 -0.0969514 67.9842 0.147473 66.1749C1.07846 64.8412 1.6275 64.2621 3.1264 63.901C3.56695 63.8836 4.0075 63.8663 4.46139 63.8484C4.94016 63.8249 5.41892 63.8015 5.91219 63.7773C6.40941 63.7623 6.90662 63.7474 7.41891 63.732C7.92305 63.7093 8.42719 63.6867 8.94661 63.6634C10.1897 63.6088 11.4332 63.5658 12.6767 63.5249C12.1668 62.9895 11.6569 62.4541 11.1315 61.9024C10.4655 61.1877 9.7997 60.4725 9.13422 59.7571C8.79775 59.4057 8.46127 59.0543 8.11459 58.6922C6.62567 57.0786 5.64008 55.959 4.9345 53.756C4.92052 52.2628 4.92052 52.2628 5.85276 50.6895C7.30704 49.6129 7.30704 49.6129 9.02381 49.6917C11.2801 50.3986 12.0083 51.2667 13.5111 53.2384C13.9896 53.8352 14.4682 54.4319 14.9613 55.0467C15.4625 55.672 15.9638 56.2973 16.4802 56.9416C20.9211 62.4715 20.9211 62.4715 27.0649 64.4551C28.8762 64.3099 30.6049 64.0164 32.3655 63.5249C31.8987 63.0527 31.4319 62.5804 30.9509 62.0939C30.3406 61.4535 29.7308 60.8126 29.1214 60.1712C28.8133 59.8624 28.5053 59.5537 28.188 59.2357C26.5579 57.4967 25.8099 56.2659 25.185 53.8388C25.206 51.6004 25.206 51.6004 25.7024 50.0166C27.8392 48.2553 30.1832 48.4999 32.7757 48.4536C33.3083 48.434 33.8409 48.4143 34.3897 48.3941C35.7038 48.3473 37.0173 48.3123 38.3318 48.288C35.8307 44.681 33.5515 41.4958 29.4567 40.3586C26.931 40.1015 24.4179 40.1872 21.8872 40.2968C20.5817 40.3206 19.2765 40.3342 17.9708 40.3429C16.8005 40.3557 15.6305 40.3941 14.4606 40.4338C12.6767 40.3383 12.6767 40.3383 11.4835 39.0133C11.1496 35.5286 11.1496 35.5286 12.2323 33.9391C13.5032 32.8549 14.2081 32.7746 15.7974 32.712C16.2761 32.6885 16.7549 32.665 17.2482 32.6408C17.7454 32.6259 18.2426 32.611 18.7549 32.5956C19.259 32.5729 19.7632 32.5503 20.2826 32.527C21.5257 32.4724 22.7692 32.4293 24.0127 32.3885C23.5459 31.9086 23.079 31.4287 22.598 30.9342C21.9878 30.2877 21.378 29.6407 20.7685 28.9933C20.4605 28.6791 20.1525 28.3648 19.8351 28.041C17.7941 25.8488 16.9424 24.2964 16.8531 21.1264C17.4871 19.8843 17.4871 19.8843 18.643 19.139C20.4246 18.8154 21.6635 18.704 23.1849 19.8872C24.1806 20.9216 25.1075 21.9953 26.0263 23.1139C26.5143 23.6826 26.5143 23.6826 27.0122 24.2628C27.8106 25.1961 28.5977 26.1413 29.3824 27.0887C29.3911 26.7178 29.3998 26.3469 29.4087 25.9648C29.4532 24.2825 29.5109 22.6011 29.5688 20.9194C29.5823 20.3357 29.5957 19.752 29.6096 19.1506C29.6308 18.5891 29.6519 18.0277 29.6737 17.4492C29.6893 16.9322 29.705 16.4153 29.721 15.8827C30.0416 14.1666 30.5015 13.5406 31.7689 12.5142C33.945 12.6622 34.981 12.7684 36.542 14.5017C36.6375 16.493 36.6375 16.493 36.5792 19.0355C36.5739 19.9671 36.5701 20.8987 36.5676 21.8303C36.5591 23.2937 36.5424 24.754 36.4991 26.2166C36.296 32.359 36.296 32.359 38.5066 37.8617C39.9735 39.4905 41.444 40.9484 43.1049 42.3257C43.1134 41.4956 43.1218 40.6656 43.1305 39.8103C43.1585 38.7165 43.1873 37.6228 43.2168 36.529C43.222 35.7092 43.222 35.7092 43.2272 34.8728C43.3176 32.1094 43.3851 30.8157 45.0369 28.6517C46.6847 27.7512 46.6847 27.7512 48.2112 27.7797C49.8356 28.4867 50.8156 29.2927 52.0916 30.6081C52.4985 31.0249 52.9053 31.4416 53.3245 31.871C53.6929 32.2604 54.0613 32.6498 54.4409 33.051C55.1792 33.8093 55.1792 33.8093 55.9325 34.583C56.8274 35.7009 56.8274 35.7009 56.8274 37.0259C57.2212 37.0259 57.615 37.0259 58.0207 37.0259C58.0207 33.0908 58.0207 29.1556 58.0207 25.1013C57.2331 24.664 56.4456 24.2268 55.6341 23.7763C54.7972 22.96 53.9887 22.1072 53.2033 21.2299C52.5325 20.4831 52.5325 20.4831 51.8481 19.7212C51.387 19.2012 50.926 18.6811 50.4509 18.1453C49.7489 17.3652 49.7489 17.3652 49.0327 16.5693C44.9562 12.0077 44.9562 12.0077 44.7456 9.20184C44.7948 8.54598 44.8441 7.89013 44.8948 7.21441C46.8789 5.74568 47.3678 5.39399 49.6678 5.88945C51.1795 7.1606 52.4416 8.65848 53.7324 10.1956C54.0889 10.6063 54.4453 11.0171 54.8126 11.4403C55.69 12.4534 56.5579 13.4766 57.424 14.5017C57.4327 14.1308 57.4414 13.7599 57.4504 13.3777C57.4949 11.6955 57.5525 10.0141 57.6105 8.33234C57.6239 7.74864 57.6374 7.16495 57.6513 6.56357C57.683 5.72134 57.683 5.72134 57.7154 4.86209C57.731 4.34517 57.7466 3.82825 57.7627 3.29567C58.2575 0.646738 59.2599 -0.0977991 61.6377 0.00996838Z" fill="#99B7DD"/>
<path d="M48.5298 77.2643C49.0409 77.2596 49.5521 77.255 50.0786 77.2501C50.6406 77.2518 51.2025 77.2534 51.7815 77.2551C52.3724 77.2517 52.9633 77.2483 53.572 77.2448C55.5327 77.2356 57.4933 77.2363 59.454 77.2378C60.8124 77.2352 62.1708 77.2323 63.5292 77.2292C66.3796 77.2242 69.23 77.2244 72.0804 77.2279C75.7387 77.2318 79.3969 77.2205 83.0552 77.2052C85.8615 77.1954 88.6678 77.1948 91.4742 77.1969C92.8232 77.1965 94.1722 77.1931 95.5213 77.1864C97.4055 77.1783 99.2894 77.1827 101.174 77.1904C101.734 77.1853 102.295 77.1803 102.873 77.175C103.386 77.1797 103.899 77.1843 104.427 77.1891C104.872 77.189 105.318 77.1889 105.777 77.1888C107.279 77.5082 107.81 78.0942 108.734 79.4245C108.958 81.0807 108.958 81.0807 108.734 82.7369C107.814 84.0587 107.281 84.6515 105.788 84.9744C105.348 84.9751 104.907 84.9759 104.453 84.9767C103.947 84.9823 103.44 84.9879 102.917 84.9936C102.363 84.9896 101.809 84.9856 101.238 84.9815C100.653 84.9849 100.068 84.9884 99.4648 84.992C97.5267 85.0008 95.5888 84.995 93.6507 84.9882C92.3065 84.9896 90.9623 84.9915 89.6181 84.994C86.7994 84.9969 83.9807 84.9927 81.162 84.9834C77.5444 84.9721 73.9271 84.9786 70.3096 84.9905C67.5335 84.9977 64.7574 84.9954 61.9812 84.9902C60.6472 84.9889 59.3131 84.9905 57.9791 84.9952C56.1163 85.0002 54.2539 84.9925 52.3911 84.9815C51.5598 84.9875 51.5598 84.9875 50.7116 84.9936C50.2047 84.988 49.6978 84.9824 49.1756 84.9767C48.7352 84.9759 48.2948 84.9752 47.841 84.9744C46.3395 84.6496 45.8081 84.0805 44.8948 82.7369C44.7083 80.708 44.7083 80.708 44.8948 78.762C46.3151 77.185 46.5994 77.2702 48.5298 77.2643Z" fill="#99B7DD"/>
<path d="M31.8049 89.8314C32.5496 89.823 33.2943 89.8145 34.0615 89.8058C34.8751 89.8038 35.6887 89.8023 36.5023 89.8014C37.3368 89.7971 38.1712 89.7926 39.0057 89.788C40.7546 89.7801 42.5034 89.7776 44.2523 89.7784C46.4921 89.7785 48.7314 89.7604 50.9711 89.7376C52.6945 89.7229 54.4177 89.7202 56.1412 89.7209C56.9668 89.7193 57.7925 89.7135 58.6181 89.7032C59.7733 89.6902 60.9287 89.6957 62.0839 89.702C62.7409 89.7002 63.398 89.6983 64.0749 89.6963C66.173 90.1002 66.8962 90.8037 68.1634 92.6738C68.067 94.9206 67.8156 95.7099 66.3735 97.3112C64.7698 97.4839 64.7698 97.4839 62.7064 97.4931C61.9359 97.4994 61.1653 97.5057 60.3714 97.5122C59.5265 97.5121 58.6815 97.5114 57.8365 97.5104C56.973 97.513 56.1096 97.5159 55.2461 97.519C53.4349 97.524 51.6239 97.5238 49.8128 97.5203C47.4907 97.5164 45.1689 97.5277 42.8469 97.543C41.0632 97.5528 39.2795 97.5534 37.4957 97.5513C36.6396 97.5516 35.7834 97.5551 34.9273 97.5618C33.7305 97.5699 32.5336 97.5642 31.3367 97.5578C30.6553 97.5582 29.974 97.5586 29.272 97.5591C27.5925 97.3112 27.5925 97.3112 26.4589 96.4288C25.8026 95.3237 25.8026 95.3237 25.8772 93.2949C26.8334 89.7304 28.836 89.8543 31.8049 89.8314Z" fill="#99B7DD"/>
<path d="M20.0763 77.3024C20.8223 77.2968 20.8223 77.2968 21.5833 77.291C22.636 77.2847 23.6887 77.2804 24.7414 77.2778C26.3535 77.2714 27.965 77.2508 29.577 77.23C30.5989 77.2256 31.6209 77.2222 32.6429 77.2196C33.1258 77.2114 33.6087 77.2033 34.1063 77.1948C37.479 77.2097 37.479 77.2097 38.7554 78.3419C39.5251 79.4244 39.5251 79.4244 39.7861 81.0806C39.5251 82.7368 39.5251 82.7368 38.628 83.8161C36.5125 85.106 34.4929 85.0213 32.1394 85.0115C31.6571 85.015 31.1747 85.0184 30.6777 85.022C29.6602 85.0262 28.6427 85.0254 27.6252 85.0197C26.0667 85.0141 24.5095 85.0332 22.9511 85.0542C21.9618 85.0552 20.9724 85.0549 19.9831 85.0529C19.2839 85.064 19.2839 85.064 18.5705 85.0754C15.3675 85.0296 15.3675 85.0296 13.8538 83.5107C13.0371 81.4898 13.3255 80.192 13.87 78.0995C15.8097 77.0226 17.9443 77.3148 20.0763 77.3024Z" fill="#99B7DD"/>
<path d="M78.5275 89.8248C79.1707 89.8205 79.1707 89.8205 79.827 89.8162C80.7332 89.8124 81.6394 89.812 82.5456 89.8149C83.9298 89.817 85.3133 89.8015 86.6974 89.7847C87.5787 89.7832 88.4601 89.7827 89.3414 89.7834C89.9605 89.7742 89.9605 89.7742 90.5922 89.7649C93.0324 89.7908 94.429 90.1086 96.205 92.0115C95.683 96.566 95.683 96.566 95.0118 97.3113C93.4419 97.3946 91.8886 97.4363 90.318 97.4459C89.8463 97.4496 89.3746 97.4534 88.8887 97.4573C87.8886 97.4636 86.8885 97.4679 85.8884 97.4704C84.3575 97.4769 82.827 97.4974 81.2962 97.5183C80.3259 97.5226 79.3556 97.5261 78.3853 97.5287C77.6973 97.5409 77.6973 97.5409 76.9953 97.5535C73.8439 97.5388 73.8439 97.5388 72.3302 96.4308C71.7432 95.3239 71.7432 95.3239 71.8177 93.295C72.8496 89.4485 75.4417 89.8203 78.5275 89.8248Z" fill="#99B7DD"/>
<path d="M50.2645 39.6758C50.8877 40.2531 51.5088 40.8334 52.129 41.4148C52.6481 41.899 52.6481 41.899 53.1777 42.393C53.5946 42.808 54.0114 43.223 54.4409 43.6506C54.7496 43.9212 55.0583 44.1918 55.3764 44.4707C56.8224 45.8502 57.8683 46.8938 58.3071 49.0006C58.3722 50.5209 58.3348 51.9865 58.2444 53.505C58.2283 54.0242 58.2121 54.5434 58.1955 55.0784C58.1536 56.3489 58.0894 57.6185 58.0207 58.8876C57.3975 58.3103 56.7765 57.73 56.1562 57.1486C55.8101 56.8258 55.4641 56.503 55.1075 56.1704C54.6906 55.7554 54.2738 55.3404 53.8443 54.9128C53.5356 54.6421 53.2269 54.3715 52.9089 54.0927C51.4628 52.7132 50.4169 51.6696 49.9781 49.5628C49.913 48.0425 49.9504 46.5768 50.0408 45.0584C50.0569 44.5392 50.0731 44.02 50.0897 43.485C50.1316 42.2145 50.1958 40.9449 50.2645 39.6758Z" fill="#F3FAFD"/>
<path d="M71.7432 39.6758C72.4718 50.2944 72.4718 50.2944 70.7643 53.3549C69.545 54.5032 68.3648 55.3758 66.9701 56.2377C66.168 56.8903 65.3705 57.5501 64.5836 58.2251C63.6072 48.8843 63.6072 48.8843 65.2181 45.7144C69.5557 39.6758 69.5557 39.6758 71.7432 39.6758Z" fill="#F9FCFE"/>
<path d="M81.1774 56.0307C81.6477 56.0457 82.118 56.0606 82.6026 56.076C83.7563 56.1148 84.9095 56.1742 86.0624 56.2378C85.5296 56.9432 84.9946 57.6467 84.4589 58.3494C84.1613 58.7414 83.8636 59.1333 83.557 59.5372C83.2024 59.9787 82.8479 60.4202 82.4826 60.8751C82.058 61.4695 81.6335 62.0638 81.1961 62.6762C78.8537 64.7626 77.1461 64.5702 74.2416 64.3945C73.7713 64.3796 73.301 64.3646 72.8164 64.3492C71.6627 64.3104 70.5095 64.251 69.3567 64.1875C69.8895 63.482 70.4244 62.7786 70.9601 62.0758C71.2578 61.6839 71.5554 61.2919 71.8621 60.888C72.3939 60.2258 72.3939 60.2258 72.9365 59.5501C73.5733 58.6586 73.5733 58.6586 74.223 57.749C76.5653 55.6626 78.2729 55.855 81.1774 56.0307Z" fill="#FDFEFE"/>
<path d="M35.9453 56.2377C44.3577 55.1536 44.3577 55.1536 47.2125 56.9422C49.3475 58.8329 51.0568 61.0743 52.651 63.525C52.651 63.7436 52.651 63.9622 52.651 64.1874C44.2386 65.2715 44.2386 65.2715 41.3837 63.4829C39.2488 61.5922 37.5395 59.3509 35.9453 56.9002C35.9453 56.6816 35.9453 56.463 35.9453 56.2377Z" fill="#FDFEFE"/>
</svg>
