<svg width="164" height="64" viewBox="0 0 164 64" fill="none" xmlns="http://www.w3.org/2000/svg">
<g clip-path="url(#clip0_20_8)">
<rect x="0.203125" y="16" width="161" height="31" fill="black"/>
<path d="M0.203125 26.2043V43.5043H81.1866H162.17V26.2043V8.90435H81.1866H0.203125V26.2043ZM12.5594 15.4844C13.5195 15.8244 14.7509 17.0644 15.231 18.1644C15.5232 18.7844 15.7528 19.7844 15.8154 20.6444L15.9198 22.1043H14.2083H12.5176V21.4844C12.5176 18.9243 10.827 17.4844 8.86502 18.3444C7.69618 18.8444 7.6127 19.3044 7.55008 25.2444C7.48746 31.0644 7.59182 32.0043 8.44758 32.8243C9.1781 33.5243 10.7852 33.5043 11.5575 32.7843C12.1837 32.1643 12.5176 31.1843 12.5176 29.8443V28.9043H14.3126H16.1285L15.9824 30.3043C15.6693 33.2643 14.7092 34.9643 12.8307 35.8843C11.975 36.3243 11.5158 36.4043 10.1173 36.4043C8.63543 36.4043 8.25973 36.3243 7.17438 35.8043C5.71334 35.0843 4.75323 33.8643 4.3984 32.3043C4.04358 30.7043 4.08532 20.0044 4.46102 18.8244C5.12892 16.7044 6.69433 15.3843 8.82327 15.1243C9.99211 14.9844 11.6619 15.1444 12.5594 15.4844ZM30.4884 15.4644C31.3233 15.7844 32.5339 16.8643 32.9722 17.7043C33.6819 19.0443 33.8488 20.7844 33.7654 26.6243C33.7027 32.1444 33.7027 32.2243 33.1601 33.3043C32.0747 35.5043 30.5511 36.3843 27.8377 36.4043C26.3767 36.4043 26.001 36.3243 24.9574 35.8043C23.4754 35.0643 22.6614 34.0643 22.2231 32.3443C21.9309 31.3043 21.8892 30.0843 21.9518 25.1444C22.0144 19.4444 22.0353 19.1644 22.4945 18.2043C23.0789 16.9844 24.0599 15.9644 25.0408 15.5644C26.481 14.9644 29.0065 14.9244 30.4884 15.4644ZM90.0781 15.6644C91.8522 16.5444 92.8332 18.2043 93.021 20.6243L93.1463 22.1043H91.4765H89.8068L89.6607 20.9844C89.4311 19.0644 88.6379 18.1043 87.2812 18.1043C86.2168 18.1043 85.4654 18.5844 85.0688 19.5044C84.7975 20.1843 84.7349 21.1844 84.7349 25.5243C84.7349 28.7243 84.8183 31.0644 84.9644 31.6243C85.2775 32.7643 85.9663 33.3043 87.156 33.3043C88.784 33.3043 89.7441 32.0043 89.7441 29.8243V28.9043H91.5391H93.3341L93.188 30.2443C92.8749 33.2843 91.9357 34.9843 90.0572 35.8843C89.2015 36.2843 88.7005 36.3843 87.3439 36.3843C83.6704 36.4043 81.7293 34.5643 81.4162 30.8043V28.0087H77.0892H72.6291V26.1043V24.2043H76.9705H81.5206L81.3953 21.5443C81.3953 20.7044 81.4579 19.6644 81.5206 19.2444C81.7293 18.0444 82.8355 16.4844 83.9417 15.8444C85.5697 14.8844 88.304 14.8044 90.0781 15.6644ZM43.4082 24.2043V33.1043H46.7478H50.0873V34.6043V36.1043H45.078H40.0687V25.7043V15.3043H41.7385H43.4082V24.2043ZM63.8628 15.8244C64.9064 16.2844 65.9709 17.3444 66.5344 18.4644C66.8475 19.1244 66.8893 19.9243 66.8893 25.7043C66.8893 31.8843 66.8684 32.2443 66.451 33.1043C65.9292 34.1843 65.1151 34.9843 63.9672 35.5643C63.2158 35.9443 62.7149 36.0043 59.3336 36.0643L55.514 36.1443V25.7043V15.2644L59.2292 15.3444C62.4018 15.4044 63.0488 15.4643 63.8628 15.8244ZM102.685 19.6043V23.9044H104.981H107.277V19.6043V15.3043H109.051H110.825V25.7043V36.1043H109.051H107.277V31.5043V26.9044H104.981H102.685V31.5043V36.1043H100.911H99.1366V25.8444C99.1366 20.1844 99.1992 15.5044 99.2827 15.4444C99.3453 15.3644 100.159 15.3043 101.057 15.3043H102.685V19.6043ZM125.644 16.3444C125.769 16.9244 126.709 21.3643 127.731 26.2043C128.733 31.0443 129.631 35.2443 129.714 35.5443L129.86 36.1043H128.086H126.333L126.061 34.8443C125.936 34.1643 125.728 33.1843 125.602 32.6443L125.394 31.7043H123.139C121.157 31.7043 120.864 31.7443 120.781 32.0443C120.718 32.2443 120.51 33.2443 120.322 34.2443L119.967 36.1043H118.297H116.627L116.753 35.5443C116.815 35.2443 117.713 30.7243 118.756 25.5043C119.8 20.2843 120.697 15.8444 120.76 15.6444C120.864 15.3444 121.157 15.3043 123.139 15.3043H125.394L125.644 16.3444ZM138.793 25.7043V36.1043H137.019H135.245V25.7043V15.3043H137.019H138.793V25.7043ZM151.317 21.5244L153.926 27.7444L153.988 21.5244L154.03 15.3043H155.7H157.37V25.7043V36.1043H155.825C154.781 36.1043 154.26 36.0243 154.176 35.8443C152.903 32.7243 148.708 22.9443 148.582 22.8043C148.478 22.7043 148.395 25.4844 148.395 29.3643V36.1043H146.829H145.264V25.7043V15.3043H146.996H148.708L151.317 21.5244Z" fill="white"/>
<path d="M26.2097 18.84C25.2704 19.74 25.1869 20.38 25.2913 26.7C25.3539 32.16 25.4583 32.66 26.6062 33.16C28.2343 33.88 29.9249 33.06 30.2797 31.4C30.4884 30.28 30.5093 21.64 30.2797 20.34C30.0501 19 29.3614 18.38 27.9838 18.24C27.0028 18.16 26.8776 18.2 26.2097 18.84Z" fill="white"/>
<path d="M58.8535 25.8V33.2H60.1267C61.7547 33.2 62.6731 32.78 63.174 31.84C63.508 31.18 63.5497 30.54 63.5497 25.8C63.5497 20.84 63.5289 20.46 63.1323 19.8C62.5479 18.86 61.546 18.4 60.0641 18.4H58.8535V25.8Z" fill="white"/>
<path d="M122.242 24.06C121.824 26.4 121.47 28.42 121.47 28.54C121.47 28.72 121.95 28.8 123.139 28.8C124.058 28.8 124.809 28.72 124.809 28.62C124.809 28.32 123.181 19.96 123.098 19.9C123.056 19.86 122.68 21.74 122.242 24.06Z" fill="white"/>
<path d="M31.3025 51.2V54H33.0974C34.4333 54 34.8716 53.94 34.809 53.74C34.7463 53.6 34.2245 53.48 33.4314 53.44L32.1373 53.38V52.4V51.4H33.1809C33.9741 51.4 34.2245 51.32 34.2245 51.1C34.2245 50.88 33.9741 50.8 33.1809 50.8H32.1373V49.9V49H33.3897C34.3706 49 34.642 48.94 34.642 48.7C34.642 48.46 34.308 48.4 32.9722 48.4H31.3025V51.2Z" fill="black"/>
<path d="M36.3117 48.52C36.3117 48.58 36.7083 49.16 37.1675 49.82C37.6893 50.52 37.9815 51.12 37.898 51.3C37.8354 51.46 37.3971 52.14 36.9379 52.8C36.1239 53.94 36.103 54 36.5622 54C36.8962 54 37.251 53.7 37.7519 53C38.1276 52.44 38.5242 52 38.6077 52C38.6912 52 39.0668 52.44 39.4425 53C39.86 53.62 40.2566 54 40.507 54C41.0706 54 41.0079 53.86 39.9643 52.42L39.0251 51.14L39.9643 49.86C40.4861 49.16 40.9036 48.54 40.9036 48.5C40.9036 48.44 40.7157 48.4 40.4861 48.4C40.2148 48.4 39.8391 48.76 39.4008 49.4C39.0251 49.94 38.6703 50.4 38.6077 50.4C38.545 50.4 38.1902 49.94 37.8145 49.4C37.3762 48.76 37.0005 48.4 36.7292 48.4C36.4996 48.4 36.3117 48.46 36.3117 48.52Z" fill="black"/>
<path d="M43.6587 48.8C41.9681 49.8 41.9681 52.6 43.6587 53.6C44.7232 54.22 47.2904 54.1 46.873 53.44C46.7895 53.3 46.3512 53.26 45.725 53.34C44.8275 53.44 44.6605 53.38 44.0553 52.86C43.5126 52.42 43.3456 52.08 43.2621 51.34C43.1578 50.48 43.1995 50.36 43.8883 49.7C44.6605 48.96 45.3702 48.82 46.1633 49.22C46.7895 49.54 47.2069 49.08 46.6643 48.68C46.059 48.26 44.4727 48.32 43.6587 48.8Z" fill="black"/>
<path d="M49.0437 51.2V54H50.8387C52.1745 54 52.6128 53.94 52.5502 53.74C52.4876 53.6 51.9658 53.48 51.1726 53.44L49.8786 53.38V52.4V51.4H50.9222C51.7153 51.4 51.9658 51.32 51.9658 51.1C51.9658 50.88 51.7153 50.8 50.9222 50.8H49.8786V49.9V49H51.1309C52.1119 49 52.3832 48.94 52.3832 48.7C52.3832 48.46 52.0492 48.4 50.7134 48.4H49.0437V51.2Z" fill="black"/>
<path d="M54.6791 51.2V54H56.3489C57.6847 54 58.0186 53.94 58.0186 53.7C58.0186 53.46 57.7473 53.4 56.7663 53.4H55.514V50.9C55.514 48.54 55.4931 48.4 55.0966 48.4C54.7 48.4 54.6791 48.54 54.6791 51.2Z" fill="black"/>
<path d="M59.8971 51.2V54H61.5669C62.9027 54 63.2366 53.94 63.2366 53.7C63.2366 53.46 62.9653 53.4 61.9843 53.4H60.732V50.9C60.732 48.54 60.7111 48.4 60.3146 48.4C59.918 48.4 59.8971 48.54 59.8971 51.2Z" fill="black"/>
<path d="M65.1151 51.2V54H66.9101C68.2459 54 68.6843 53.94 68.6216 53.74C68.559 53.6 68.0372 53.48 67.2441 53.44L65.95 53.38V52.4V51.4H66.9936C67.7868 51.4 68.0372 51.32 68.0372 51.1C68.0372 50.88 67.7868 50.8 66.9936 50.8H65.95V49.9V49H67.2023C68.1833 49 68.4547 48.94 68.4547 48.7C68.4547 48.46 68.1207 48.4 66.7849 48.4H65.1151V51.2Z" fill="black"/>
<path d="M70.7506 51.2C70.7506 53.86 70.7715 54 71.168 54C71.5437 54 71.5855 53.84 71.6272 51.78L71.6898 49.56L73.1926 51.78C74.2988 53.42 74.7998 54 75.1337 54C75.5303 54 75.5512 53.88 75.5512 51.2C75.5512 48.84 75.5094 48.4 75.2381 48.4C74.9876 48.4 74.925 48.76 74.925 50.5C74.925 51.66 74.8624 52.6 74.7789 52.6C74.6745 52.58 73.9858 51.64 73.2135 50.5C72.0447 48.74 71.7316 48.4 71.2724 48.4H70.7506V51.2Z" fill="black"/>
<path d="M79.1411 48.8C78.3897 49.24 77.8471 50.24 77.8471 51.2C77.8471 52.16 78.3897 53.16 79.1411 53.6C80.2056 54.22 82.7729 54.1 82.3554 53.44C82.2719 53.3 81.8336 53.26 81.2075 53.34C80.31 53.44 80.143 53.38 79.5377 52.86C78.995 52.42 78.8281 52.08 78.7446 51.34C78.6402 50.48 78.6819 50.36 79.3707 49.7C80.143 48.96 80.8526 48.82 81.6458 49.22C82.2719 49.54 82.6894 49.08 82.1467 48.68C81.5414 48.26 79.9551 48.32 79.1411 48.8Z" fill="black"/>
<path d="M84.5261 51.2V54H86.3211C87.6569 54 88.0952 53.94 88.0326 53.74C87.97 53.6 87.4482 53.48 86.6551 53.44L85.361 53.38V52.4V51.4H86.4046C87.1978 51.4 87.4482 51.32 87.4482 51.1C87.4482 50.88 87.1978 50.8 86.4046 50.8H85.361V49.9V49H86.6133C87.5943 49 87.8657 48.94 87.8657 48.7C87.8657 48.46 87.5317 48.4 86.1959 48.4H84.5261V51.2Z" fill="black"/>
<path d="M93.2924 51.22V54.04L94.9413 53.98C96.444 53.9 96.6736 53.84 97.2581 53.3C98.8443 51.84 98.3851 49.34 96.3606 48.62C96.0266 48.5 95.2126 48.4 94.5238 48.4H93.2924V51.22ZM96.131 49.32C97.5294 49.96 97.8216 51.56 96.7571 52.72C96.4023 53.14 96.0475 53.28 95.2126 53.36L94.1273 53.46V51.22V49H94.7743C95.1291 49 95.7344 49.14 96.131 49.32Z" fill="black"/>
<path d="M100.389 51.2V54H102.184C103.52 54 103.958 53.94 103.895 53.74C103.833 53.6 103.311 53.48 102.518 53.44L101.224 53.38V52.4V51.4H102.267C103.06 51.4 103.311 51.32 103.311 51.1C103.311 50.88 103.06 50.8 102.267 50.8H101.224V49.9V49H102.476C103.457 49 103.728 48.94 103.728 48.7C103.728 48.46 103.394 48.4 102.059 48.4H100.389V51.2Z" fill="black"/>
<path d="M106.024 51.2V54H107.694C109.03 54 109.364 53.94 109.364 53.7C109.364 53.46 109.093 53.4 108.112 53.4H106.859V50.9C106.859 48.54 106.838 48.4 106.442 48.4C106.045 48.4 106.024 48.54 106.024 51.2Z" fill="black"/>
<path d="M111.242 51.2C111.242 53.86 111.263 54 111.659 54C112.056 54 112.077 53.86 112.077 51.2C112.077 48.54 112.056 48.4 111.659 48.4C111.263 48.4 111.242 48.54 111.242 51.2Z" fill="black"/>
<path d="M114.54 49.34C114.77 49.86 115.291 51.18 115.73 52.26C116.147 53.34 116.606 54.18 116.732 54.14C116.857 54.1 117.42 52.96 117.963 51.58C119.32 48.2 119.278 48.4 118.798 48.4C118.464 48.4 118.234 48.82 117.608 50.5C117.17 51.66 116.773 52.56 116.711 52.5C116.627 52.44 116.231 51.5 115.813 50.44C115.208 48.88 114.978 48.48 114.603 48.44L114.164 48.38L114.54 49.34Z" fill="black"/>
<path d="M120.843 51.2V54H122.638C123.974 54 124.413 53.94 124.35 53.74C124.287 53.6 123.766 53.48 122.972 53.44L121.678 53.38V52.4V51.4H122.722C123.515 51.4 123.766 51.32 123.766 51.1C123.766 50.88 123.515 50.8 122.722 50.8H121.678V49.9V49H122.931C123.912 49 124.183 48.94 124.183 48.7C124.183 48.46 123.849 48.4 122.513 48.4H120.843V51.2Z" fill="black"/>
<path d="M126.479 51.2C126.479 53.86 126.5 54 126.896 54C127.272 54 127.314 53.86 127.314 52.8C127.314 51.78 127.376 51.6 127.689 51.6C127.898 51.6 128.357 52.08 128.837 52.8C129.359 53.62 129.735 54 130.027 54C130.257 54 130.445 53.96 130.445 53.9C130.445 53.84 130.111 53.3 129.693 52.7L128.942 51.62L129.526 51.14C129.965 50.76 130.111 50.48 130.111 49.9C130.111 48.8 129.505 48.4 127.815 48.4H126.479V51.2ZM129.067 49.32C129.777 49.98 129.13 51 128.023 51H127.314V50V49H128.023C128.42 49 128.9 49.14 129.067 49.32Z" fill="black"/>
<path d="M131.739 48.84C133.262 51.06 133.367 51.32 133.367 52.68C133.367 53.86 133.408 54 133.784 54C134.16 54 134.202 53.86 134.202 52.7C134.202 51.44 134.264 51.3 135.245 49.9C136.164 48.6 136.247 48.4 135.871 48.4C135.6 48.4 135.203 48.78 134.702 49.5C134.285 50.1 133.909 50.6 133.868 50.6C133.826 50.6 133.471 50.1 133.054 49.5C132.553 48.74 132.198 48.4 131.885 48.4C131.467 48.4 131.467 48.44 131.739 48.84Z" fill="black"/>
<path d="M31.3025 51.2V54H33.0974C34.4333 54 34.8716 53.94 34.809 53.74C34.7463 53.6 34.2245 53.48 33.4314 53.44L32.1373 53.38V52.4V51.4H33.1809C33.9741 51.4 34.2245 51.32 34.2245 51.1C34.2245 50.88 33.9741 50.8 33.1809 50.8H32.1373V49.9V49H33.3897C34.3706 49 34.642 48.94 34.642 48.7C34.642 48.46 34.308 48.4 32.9722 48.4H31.3025V51.2Z" fill="white"/>
<path d="M36.3117 48.52C36.3117 48.58 36.7083 49.16 37.1675 49.82C37.6893 50.52 37.9815 51.12 37.898 51.3C37.8354 51.46 37.3971 52.14 36.9379 52.8C36.1239 53.94 36.103 54 36.5622 54C36.8962 54 37.251 53.7 37.7519 53C38.1276 52.44 38.5242 52 38.6077 52C38.6912 52 39.0668 52.44 39.4425 53C39.86 53.62 40.2566 54 40.507 54C41.0706 54 41.0079 53.86 39.9643 52.42L39.0251 51.14L39.9643 49.86C40.4861 49.16 40.9036 48.54 40.9036 48.5C40.9036 48.44 40.7157 48.4 40.4861 48.4C40.2148 48.4 39.8391 48.76 39.4008 49.4C39.0251 49.94 38.6703 50.4 38.6077 50.4C38.545 50.4 38.1902 49.94 37.8145 49.4C37.3762 48.76 37.0005 48.4 36.7292 48.4C36.4996 48.4 36.3117 48.46 36.3117 48.52Z" fill="white"/>
<path d="M43.6587 48.8C41.9681 49.8 41.9681 52.6 43.6587 53.6C44.7232 54.22 47.2904 54.1 46.873 53.44C46.7895 53.3 46.3512 53.26 45.725 53.34C44.8275 53.44 44.6605 53.38 44.0553 52.86C43.5126 52.42 43.3456 52.08 43.2621 51.34C43.1578 50.48 43.1995 50.36 43.8883 49.7C44.6605 48.96 45.3702 48.82 46.1633 49.22C46.7895 49.54 47.2069 49.08 46.6643 48.68C46.059 48.26 44.4727 48.32 43.6587 48.8Z" fill="white"/>
<path d="M49.0437 51.2V54H50.8387C52.1745 54 52.6128 53.94 52.5502 53.74C52.4876 53.6 51.9658 53.48 51.1726 53.44L49.8786 53.38V52.4V51.4H50.9222C51.7153 51.4 51.9658 51.32 51.9658 51.1C51.9658 50.88 51.7153 50.8 50.9222 50.8H49.8786V49.9V49H51.1309C52.1119 49 52.3832 48.94 52.3832 48.7C52.3832 48.46 52.0492 48.4 50.7134 48.4H49.0437V51.2Z" fill="white"/>
<path d="M54.6791 51.2V54H56.3489C57.6847 54 58.0186 53.94 58.0186 53.7C58.0186 53.46 57.7473 53.4 56.7663 53.4H55.514V50.9C55.514 48.54 55.4931 48.4 55.0966 48.4C54.7 48.4 54.6791 48.54 54.6791 51.2Z" fill="white"/>
<path d="M59.8971 51.2V54H61.5669C62.9027 54 63.2366 53.94 63.2366 53.7C63.2366 53.46 62.9653 53.4 61.9843 53.4H60.732V50.9C60.732 48.54 60.7111 48.4 60.3146 48.4C59.918 48.4 59.8971 48.54 59.8971 51.2Z" fill="white"/>
<path d="M65.1151 51.2V54H66.9101C68.2459 54 68.6843 53.94 68.6216 53.74C68.559 53.6 68.0372 53.48 67.2441 53.44L65.95 53.38V52.4V51.4H66.9936C67.7868 51.4 68.0372 51.32 68.0372 51.1C68.0372 50.88 67.7868 50.8 66.9936 50.8H65.95V49.9V49H67.2023C68.1833 49 68.4547 48.94 68.4547 48.7C68.4547 48.46 68.1207 48.4 66.7849 48.4H65.1151V51.2Z" fill="white"/>
<path d="M70.7506 51.2C70.7506 53.86 70.7715 54 71.168 54C71.5437 54 71.5855 53.84 71.6272 51.78L71.6898 49.56L73.1926 51.78C74.2988 53.42 74.7998 54 75.1337 54C75.5303 54 75.5512 53.88 75.5512 51.2C75.5512 48.84 75.5094 48.4 75.2381 48.4C74.9876 48.4 74.925 48.76 74.925 50.5C74.925 51.66 74.8624 52.6 74.7789 52.6C74.6745 52.58 73.9858 51.64 73.2135 50.5C72.0447 48.74 71.7316 48.4 71.2724 48.4H70.7506V51.2Z" fill="white"/>
<path d="M79.1411 48.8C78.3897 49.24 77.8471 50.24 77.8471 51.2C77.8471 52.16 78.3897 53.16 79.1411 53.6C80.2056 54.22 82.7729 54.1 82.3554 53.44C82.2719 53.3 81.8336 53.26 81.2075 53.34C80.31 53.44 80.143 53.38 79.5377 52.86C78.995 52.42 78.8281 52.08 78.7446 51.34C78.6402 50.48 78.6819 50.36 79.3707 49.7C80.143 48.96 80.8526 48.82 81.6458 49.22C82.2719 49.54 82.6894 49.08 82.1467 48.68C81.5414 48.26 79.9551 48.32 79.1411 48.8Z" fill="white"/>
<path d="M84.5261 51.2V54H86.3211C87.6569 54 88.0952 53.94 88.0326 53.74C87.97 53.6 87.4482 53.48 86.6551 53.44L85.361 53.38V52.4V51.4H86.4046C87.1978 51.4 87.4482 51.32 87.4482 51.1C87.4482 50.88 87.1978 50.8 86.4046 50.8H85.361V49.9V49H86.6133C87.5943 49 87.8657 48.94 87.8657 48.7C87.8657 48.46 87.5317 48.4 86.1959 48.4H84.5261V51.2Z" fill="white"/>
<path d="M93.2924 51.22V54.04L94.9413 53.98C96.444 53.9 96.6736 53.84 97.2581 53.3C98.8443 51.84 98.3851 49.34 96.3606 48.62C96.0266 48.5 95.2126 48.4 94.5238 48.4H93.2924V51.22ZM96.131 49.32C97.5294 49.96 97.8216 51.56 96.7571 52.72C96.4023 53.14 96.0475 53.28 95.2126 53.36L94.1273 53.46V51.22V49H94.7743C95.1291 49 95.7344 49.14 96.131 49.32Z" fill="white"/>
<path d="M100.389 51.2V54H102.184C103.52 54 103.958 53.94 103.895 53.74C103.833 53.6 103.311 53.48 102.518 53.44L101.224 53.38V52.4V51.4H102.267C103.06 51.4 103.311 51.32 103.311 51.1C103.311 50.88 103.06 50.8 102.267 50.8H101.224V49.9V49H102.476C103.457 49 103.728 48.94 103.728 48.7C103.728 48.46 103.394 48.4 102.059 48.4H100.389V51.2Z" fill="white"/>
<path d="M106.024 51.2V54H107.694C109.03 54 109.364 53.94 109.364 53.7C109.364 53.46 109.093 53.4 108.112 53.4H106.859V50.9C106.859 48.54 106.838 48.4 106.442 48.4C106.045 48.4 106.024 48.54 106.024 51.2Z" fill="white"/>
<path d="M111.242 51.2C111.242 53.86 111.263 54 111.659 54C112.056 54 112.077 53.86 112.077 51.2C112.077 48.54 112.056 48.4 111.659 48.4C111.263 48.4 111.242 48.54 111.242 51.2Z" fill="white"/>
<path d="M114.54 49.34C114.77 49.86 115.291 51.18 115.73 52.26C116.147 53.34 116.606 54.18 116.732 54.14C116.857 54.1 117.42 52.96 117.963 51.58C119.32 48.2 119.278 48.4 118.798 48.4C118.464 48.4 118.234 48.82 117.608 50.5C117.17 51.66 116.773 52.56 116.711 52.5C116.627 52.44 116.231 51.5 115.813 50.44C115.208 48.88 114.978 48.48 114.603 48.44L114.164 48.38L114.54 49.34Z" fill="white"/>
<path d="M120.843 51.2V54H122.638C123.974 54 124.413 53.94 124.35 53.74C124.287 53.6 123.766 53.48 122.972 53.44L121.678 53.38V52.4V51.4H122.722C123.515 51.4 123.766 51.32 123.766 51.1C123.766 50.88 123.515 50.8 122.722 50.8H121.678V49.9V49H122.931C123.912 49 124.183 48.94 124.183 48.7C124.183 48.46 123.849 48.4 122.513 48.4H120.843V51.2Z" fill="white"/>
<path d="M126.479 51.2C126.479 53.86 126.5 54 126.896 54C127.272 54 127.314 53.86 127.314 52.8C127.314 51.78 127.376 51.6 127.689 51.6C127.898 51.6 128.357 52.08 128.837 52.8C129.359 53.62 129.735 54 130.027 54C130.257 54 130.445 53.96 130.445 53.9C130.445 53.84 130.111 53.3 129.693 52.7L128.942 51.62L129.526 51.14C129.965 50.76 130.111 50.48 130.111 49.9C130.111 48.8 129.505 48.4 127.815 48.4H126.479V51.2ZM129.067 49.32C129.777 49.98 129.13 51 128.023 51H127.314V50V49H128.023C128.42 49 128.9 49.14 129.067 49.32Z" fill="white"/>
<path d="M131.739 48.84C133.262 51.06 133.367 51.32 133.367 52.68C133.367 53.86 133.408 54 133.784 54C134.16 54 134.202 53.86 134.202 52.7C134.202 51.44 134.264 51.3 135.245 49.9C136.164 48.6 136.247 48.4 135.871 48.4C135.6 48.4 135.203 48.78 134.702 49.5C134.285 50.1 133.909 50.6 133.868 50.6C133.826 50.6 133.471 50.1 133.054 49.5C132.553 48.74 132.198 48.4 131.885 48.4C131.467 48.4 131.467 48.44 131.739 48.84Z" fill="white"/>
</g>
<defs>
<clipPath id="clip0_20_8">
<rect width="163.637" height="64" fill="white" transform="translate(0.203125)"/>
</clipPath>
</defs>
</svg>
